# xmcd
#
# Track frame offsets:
#	150
#	19044
#	32646
#	52451
#	69392
#	87904
#	104124
#	121502
#	138521
#	154952
#	171291
#	194103
#	210321
#	226701
#	247047
#	260706
#	279110
#	299826
#
# Disc length: 4175
#
# Revision: 3
# Processed by: cddbd v1.5.1PL0 Copyright (c) Steve Scherf et al.
# Submitted via: tcd 2.0b
# Normalized: r2:TDELIM( - )
#
DISCID=13104d12
DTITLE=Various
DYEAR=1900
DGENRE=
TTITLE0=Eve 6 - Here's to the Night
TTITLE1=Zebrahead - I Am
TTITLE2=Reel Big Fish - The Set Up(You Need This)
TTITLE3=Green Day - Warning
TTITLE4=REM - End of the World
TTITLE5=Offspring - Vultures
TTITLE6=Moby - Southside
TTITLE7=Matchbox 20 - Angry
TTITLE8=Lighthouse - Hanging to a Moment
TTITLE9=Green Day - Macy's Day Parade
TTITLE10=Matchbox 20 - Mad Season
TTITLE11=Dave Matthews Band - I Did It
TTITLE12=Crazytown - Butterfly
TTITLE13=Coldplay - Yellow
TTITLE14=Bob Schneider - Metal and Steal
TTITLE15=Matchbox 20 - Last Beautiful Girl
TTITLE16=U2 - Stuck in a Moment
TTITLE17=Zebrahead - Playmate of the Year
EXTD=
EXTT0=
EXTT1=
EXTT2=
EXTT3=
EXTT4=
EXTT5=
EXTT6=
EXTT7=
EXTT8=
EXTT9=
EXTT10=
EXTT11=
EXTT12=
EXTT13=
EXTT14=
EXTT15=
EXTT16=
EXTT17=
PLAYORDER=
